<svg xmlns="http://www.w3.org/2000/svg" viewBox="0 0 800 800" width="800" height="800">
  <rect width="800" height="800" fill="#f7efe3"/>
  <g transform="translate(170, 310)">
    <!-- Fat double-arch 'm' logo -->
    <path fill="#442a10" d="M 0 90 A 90 90 0 0 1 180 90 L 180 180 L 130 180 L 130 90 A 40 40 0 0 0 50 90 L 50 180 L 0 180 Z M 90 90 A 90 90 0 0 1 270 90 L 270 180 L 220 180 L 220 90 A 40 40 0 0 0 140 90 L 140 180 L 90 180 Z" />
    <!-- 'dz' text -->
    <text x="295" y="160" font-family="'Space Grotesk', 'Inter', system-ui, sans-serif" font-weight="800" font-size="135" fill="#442a10" letter-spacing="-3">dz</text>
  </g>
</svg>
